<?xml version="1.0" standalone="no"?><!DOCTYPE svg PUBLIC "-//W3C//DTD SVG 1.1//EN" "http://www.w3.org/Graphics/SVG/1.1/DTD/svg11.dtd"><svg t="1605502805653" class="icon" viewBox="0 0 1024 1024" version="1.1" xmlns="http://www.w3.org/2000/svg" p-id="2347" xmlns:xlink="http://www.w3.org/1999/xlink" width="200" height="200"><defs><style type="text/css"></style></defs><path d="M333.312 487.936c-89.6 0-202.24-11.776-256.512-66.56C-19.456 325.12-19.456 168.96 76.8 72.704s252.416-96.256 348.672 0c92.16 92.16 62.976 350.72 58.88 380.416l-3.072 25.6-25.6 3.072c-11.264 0-60.416 6.144-122.368 6.144zM250.88 65.536c-46.08 0-93.184 17.92-128.512 53.248-70.656 70.656-70.656 185.856 0 256.512 48.128 48.128 200.192 53.248 300.544 43.008 8.704-100.352 5.12-252.416-43.008-300.544-35.328-34.816-81.92-52.224-129.024-52.224zM691.2 487.936c-60.928 0-111.104-6.144-123.904-6.656l-25.6-3.072-3.072-25.6c-4.096-29.696-32.256-287.744 59.904-380.416 96.256-96.256 252.416-96.256 348.672 0 96.256 96.256 96.256 252.416 0 348.672-53.76 55.296-166.912 67.072-256 67.072z m-89.6-69.12c100.352 8.704 252.416 5.12 300.544-43.008 34.304-34.304 53.248-79.36 53.248-128.512 0-48.128-18.432-94.208-53.248-128.512s-79.36-53.248-128.512-53.248c-48.128 0-94.208 18.432-128.512 53.248-48.128 47.616-53.248 199.168-43.52 300.032zM250.88 1020.928c-62.976 0-126.976-23.552-175.104-71.68-46.08-46.08-72.704-108.032-72.704-175.104 0-66.048 25.6-127.488 72.704-175.104 92.16-92.16 350.72-62.976 380.416-59.904l25.6 3.072 3.072 25.6c4.096 29.696 32.256 287.744-58.88 380.416-48.128 49.152-111.104 72.704-175.104 72.704z m86.528-421.376c-86.528 0-178.688 11.776-214.016 47.104-70.656 70.656-70.656 185.856 0 256.512 70.656 70.656 185.856 70.656 256.512 0 48.128-48.128 53.248-200.192 43.008-300.544-25.6-2.048-54.784-3.072-85.504-3.072zM773.632 1020.928c-62.976 0-126.976-23.552-175.104-71.68-92.16-92.16-62.976-350.72-59.904-380.416l3.072-25.6 25.6-3.072c29.696-4.096 287.744-32.256 380.416 59.904 96.256 96.256 96.256 252.416 0 348.672-48.128 48.64-111.104 72.192-174.08 72.192z m-172.032-418.304c-8.704 100.352-5.12 252.416 43.008 300.544 34.304 34.304 79.36 53.248 128.512 53.248 48.128 0 94.208-18.432 128.512-53.248 34.304-34.304 53.248-79.36 53.248-128.512 0-48.128-18.432-94.208-53.248-128.512-48.64-47.616-199.68-52.224-300.032-43.52z" fill="#FF9D4D" p-id="2348"></path></svg>